<svg xmlns="http://www.w3.org/2000/svg" xmlns:xlink="http://www.w3.org/1999/xlink" viewBox="0 0 751.07 272.52"><defs><linearGradient id="a" x1="385.57" y1="234.37" x2="606.33" y2="419.6" gradientUnits="userSpaceOnUse"><stop offset="0.01" stop-color="#fac826"/><stop offset="0.04" stop-color="#faca2c"/><stop offset="0.08" stop-color="#fbcf3c"/><stop offset="0.12" stop-color="#fbd757"/><stop offset="0.17" stop-color="#fde27d"/><stop offset="0.22" stop-color="#fef1ac"/><stop offset="0.25" stop-color="#fffacb"/><stop offset="0.25" stop-color="#fff9c8"/><stop offset="0.27" stop-color="#feeea2"/><stop offset="0.3" stop-color="#fde481"/><stop offset="0.32" stop-color="#fddc65"/><stop offset="0.35" stop-color="#fcd54e"/><stop offset="0.38" stop-color="#fccf3d"/><stop offset="0.42" stop-color="#fbcc30"/><stop offset="0.47" stop-color="#fbca29"/><stop offset="0.6" stop-color="#fbc927"/><stop offset="0.72" stop-color="#fbc929"/><stop offset="0.76" stop-color="#faca30"/><stop offset="0.8" stop-color="#f8cc3b"/><stop offset="0.82" stop-color="#f6ce4c"/><stop offset="0.84" stop-color="#f2d162"/><stop offset="0.86" stop-color="#efd57d"/><stop offset="0.87" stop-color="#edd688"/><stop offset="0.89" stop-color="#eed582"/><stop offset="0.92" stop-color="#f0d173"/><stop offset="0.95" stop-color="#f3cc59"/><stop offset="0.98" stop-color="#f8c435"/><stop offset="1" stop-color="#fcbd14"/></linearGradient></defs><title>mq_logo</title><path d="M135.73,291.79c0-.1.1-0.2,0.17-0.3a0.56,0.56,0,0,1,.31-0.22,3.66,3.66,0,0,1,.59-0.13,7.37,7.37,0,0,1,1-.06l0.78,0,1,0,1.13-.06,1.05-.07a3.22,3.22,0,0,1,.07.59q0,0.59-.37.63a4.48,4.48,0,0,0-1.77.5,1,1,0,0,0-.44.83s0,0.35.06,1,0.09,1.68.17,3.14,0.17,3.42.28,5.86,0.24,5.47.39,9.09a1.3,1.3,0,0,0,.48,1,4.57,4.57,0,0,0,1.81.55,0.39,0.39,0,0,1,.28.2,0.79,0.79,0,0,1,.09.39,3.21,3.21,0,0,1-.07.59l-2.35-.13q-1.05-.06-1.94-0.06l-0.92,0-1.16,0-1.2.06-1,.07a3.12,3.12,0,0,1-.07-0.59c0-.39.12-0.59,0.37-0.59a7.92,7.92,0,0,0,2-.59,1,1,0,0,0,.54-1q0-.11-0.06-1.37t-0.15-3.07q-0.09-1.81-.18-3.92t-0.19-4q-0.09-1.87-.17-3.22t-0.07-1.64l-8.09,19.55a2.51,2.51,0,0,1-.28.5,0.42,0.42,0,0,1-.35.17,0.94,0.94,0,0,1-.33,0l-9.05-20.77q0,0.37-.09,1.79t-0.15,3.38q-0.09,2-.2,4.14t-0.2,4q-0.09,1.85-.15,3.1t-0.06,1.33q0,1.15,2.51,1.59a0.48,0.48,0,0,1,.37.59,3.17,3.17,0,0,1-.07.59l-2-.13q-1-.06-1.7-0.06t-1.59.06l-1.88.13a3.13,3.13,0,0,1-.07-0.59,0.51,0.51,0,0,1,.37-0.59,5.1,5.1,0,0,0,1.61-.54,1.31,1.31,0,0,0,.68-1.05q0-.33.07-1.87t0.17-3.64q0.09-2.11.2-4.47t0.2-4.38q0.09-2,.15-3.33t0.06-1.35a0.94,0.94,0,0,0-.46-0.87,5.7,5.7,0,0,0-1.76-.5q-0.37,0-.37-0.63a3.14,3.14,0,0,1,.07-0.59l1.09,0.07,1.22,0.06,1.16,0,0.89,0a7.37,7.37,0,0,1,1,.06,3.67,3.67,0,0,1,.59.13,0.57,0.57,0,0,1,.31.22q0.09,0.15.17,0.3l7.91,18.44Z" transform="translate(-112.85 -188.74)" style="fill:#fff"/><path d="M172.19,306.32h-8.24l-2.37,6a2,2,0,0,0-.18.74q0,0.78,2.25,1.11a0.44,0.44,0,0,1,.35.2,0.79,0.79,0,0,1,.09.39,3.17,3.17,0,0,1-.07.59l-2.11-.13q-1.11-.06-2.18-0.06-0.74,0-1.52,0t-1.63.15a2.4,2.4,0,0,1-.07-0.59,1,1,0,0,1,.09-0.44A0.46,0.46,0,0,1,157,314a6.55,6.55,0,0,0,1.72-.46,1.68,1.68,0,0,0,.83-0.87l8.91-21.44a0.81,0.81,0,0,1,.7-0.63,2.06,2.06,0,0,1,.44.07l8.94,22.1a1.63,1.63,0,0,0,1,.81,7.25,7.25,0,0,0,1.52.41,0.89,0.89,0,0,1,.35.2,0.65,0.65,0,0,1,.13.46,3.17,3.17,0,0,1-.07.59l-2.33-.13q-1.15-.06-2.14-0.06t-2.37.06q-1.33.05-2.4,0.13a3.12,3.12,0,0,1-.07-0.59,0.65,0.65,0,0,1,.13-0.46,0.36,0.36,0,0,1,.24-0.13,8.46,8.46,0,0,0,1.55-.42,0.78,0.78,0,0,0,.59-0.72,1.44,1.44,0,0,0-.15-0.55Zm-0.59-1.52-3.44-9.06-3.58,9.06h7Z" transform="translate(-112.85 -188.74)" style="fill:#fff"/><path d="M204.39,304.32h-2.74v8.13a1.1,1.1,0,0,0,.76,1.11,10,10,0,0,0,2.31.48,0.54,0.54,0,0,1,.44.63,3.31,3.31,0,0,1-.07.63q-1-.07-2.42-0.13t-2.79-.06q-1,0-2.22.06l-2.37.13a3.12,3.12,0,0,1-.07-0.59,0.51,0.51,0,0,1,.41-0.59,6.63,6.63,0,0,0,2-.54,1.1,1.1,0,0,0,.57-1.05V293.72a1.18,1.18,0,0,0-.54-1.05,5.42,5.42,0,0,0-2.09-.54q-0.37,0-.37-0.63a3.17,3.17,0,0,1,.07-0.59l2.29,0.13q1.18,0.05,2.25.06h5q4,0,6,1.76a6,6,0,0,1,2,4.75,5.7,5.7,0,0,1-.28,1.7,6.69,6.69,0,0,1-.85,1.74,7.08,7.08,0,0,1-1.48,1.57,7.49,7.49,0,0,1-2.12,1.16l6.17,8.57a3.88,3.88,0,0,0,1.55,1.33,10.22,10.22,0,0,0,1.59.55,0.45,0.45,0,0,1,.33.52,3.42,3.42,0,0,1-.07.67q-0.85-.07-2.07-0.13t-2.25-.06a2.46,2.46,0,0,1-1.57-.67,8.18,8.18,0,0,1-1.5-1.7Zm-0.78-1.52a6.39,6.39,0,0,0,4-1.09q1.4-1.09,1.4-3.83a7.15,7.15,0,0,0-.3-2.11,4.29,4.29,0,0,0-.94-1.66,4.44,4.44,0,0,0-1.7-1.11,7.17,7.17,0,0,0-2.57-.41h-1.85v10.2h2Z" transform="translate(-112.85 -188.74)" style="fill:#fff"/><path d="M237.69,312.53a1,1,0,0,0,.52,1,8.15,8.15,0,0,0,1.92.57,0.51,0.51,0,0,1,.37.59,3.16,3.16,0,0,1-.07.59l-2.29-.13q-1.15-.06-2.18-0.06t-2.2.06l-2.27.13a3.16,3.16,0,0,1-.07-0.59,0.51,0.51,0,0,1,.37-0.59,6.82,6.82,0,0,0,1.92-.55,1.09,1.09,0,0,0,.52-1V293.72a1.14,1.14,0,0,0-.52-1.05,5.88,5.88,0,0,0-1.92-.54,0.35,0.35,0,0,1-.3-0.22,1.08,1.08,0,0,1-.07-0.41,3.17,3.17,0,0,1,.07-0.59l2.31,0.13q1.2,0.05,2.16.06t2.13-.06l2.35-.13a3.17,3.17,0,0,1,.07.59,0.54,0.54,0,0,1-.37.63,5.88,5.88,0,0,0-1.92.54,1.13,1.13,0,0,0-.52,1.05v18.81Z" transform="translate(-112.85 -188.74)" style="fill:#fff"/><path d="M269.83,306.32h-8.24l-2.37,6a2,2,0,0,0-.18.74q0,0.78,2.25,1.11a0.44,0.44,0,0,1,.35.2,0.79,0.79,0,0,1,.09.39,3.17,3.17,0,0,1-.07.59l-2.11-.13q-1.11-.06-2.18-0.06-0.74,0-1.52,0t-1.63.15a2.4,2.4,0,0,1-.07-0.59,1,1,0,0,1,.09-0.44,0.46,0.46,0,0,1,.39-0.22,6.55,6.55,0,0,0,1.72-.46,1.68,1.68,0,0,0,.83-0.87l8.91-21.44a0.81,0.81,0,0,1,.7-0.63,2.06,2.06,0,0,1,.44.07l8.94,22.1a1.63,1.63,0,0,0,1,.81,7.25,7.25,0,0,0,1.52.41,0.89,0.89,0,0,1,.35.2,0.65,0.65,0,0,1,.13.46,3.17,3.17,0,0,1-.07.59l-2.33-.13q-1.15-.06-2.14-0.06t-2.37.06q-1.33.05-2.4,0.13a3.12,3.12,0,0,1-.07-0.59,0.65,0.65,0,0,1,.13-0.46,0.36,0.36,0,0,1,.24-0.13,8.46,8.46,0,0,0,1.55-.42,0.78,0.78,0,0,0,.59-0.72,1.44,1.44,0,0,0-.15-0.55Zm-0.59-1.52-3.44-9.06-3.58,9.06h7Z" transform="translate(-112.85 -188.74)" style="fill:#fff"/><path d="M315.73,291.79c0-.1.1-0.2,0.17-0.3a0.56,0.56,0,0,1,.31-0.22,3.66,3.66,0,0,1,.59-0.13,7.37,7.37,0,0,1,1-.06l0.78,0,1,0,1.13-.06,1.05-.07a3.22,3.22,0,0,1,.07.59q0,0.59-.37.63a4.48,4.48,0,0,0-1.77.5,1,1,0,0,0-.44.83s0,0.35.06,1,0.09,1.68.17,3.14,0.17,3.42.28,5.86,0.24,5.47.39,9.09a1.3,1.3,0,0,0,.48,1,4.57,4.57,0,0,0,1.81.55,0.39,0.39,0,0,1,.28.2,0.79,0.79,0,0,1,.09.39,3.21,3.21,0,0,1-.07.59l-2.35-.13q-1.05-.06-1.94-0.06l-0.92,0-1.16,0-1.2.06-1,.07a3.12,3.12,0,0,1-.07-0.59c0-.39.12-0.59,0.37-0.59a7.92,7.92,0,0,0,2-.59,1,1,0,0,0,.54-1q0-.11-0.06-1.37t-0.15-3.07q-0.09-1.81-.18-3.92t-0.19-4q-0.09-1.87-.17-3.22t-0.07-1.64l-8.09,19.55a2.51,2.51,0,0,1-.28.5,0.42,0.42,0,0,1-.35.17,0.94,0.94,0,0,1-.33,0l-9.05-20.77q0,0.37-.09,1.79t-0.15,3.38q-0.09,2-.2,4.14t-0.2,4q-0.09,1.85-.15,3.1t-0.06,1.33q0,1.15,2.51,1.59a0.48,0.48,0,0,1,.37.59,3.17,3.17,0,0,1-.07.59l-2-.13q-1-.06-1.7-0.06t-1.59.06l-1.88.13a3.13,3.13,0,0,1-.07-0.59,0.51,0.51,0,0,1,.37-0.59,5.1,5.1,0,0,0,1.61-.54,1.31,1.31,0,0,0,.68-1.05q0-.33.07-1.87t0.17-3.64q0.09-2.11.2-4.47t0.2-4.38q0.09-2,.15-3.33t0.06-1.35a0.94,0.94,0,0,0-.46-0.87,5.7,5.7,0,0,0-1.76-.5q-0.37,0-.37-0.63a3.14,3.14,0,0,1,.07-0.59l1.09,0.07,1.22,0.06,1.16,0,0.89,0a7.37,7.37,0,0,1,1,.06,3.67,3.67,0,0,1,.59.13,0.57,0.57,0,0,1,.31.22q0.09,0.15.17,0.3l7.91,18.44Z" transform="translate(-112.85 -188.74)" style="fill:#fff"/><path d="M653.52,315.3a7.92,7.92,0,0,1,2.94,1.28q1.35,0.94,2.53,1.9t2.24,1.72a3.57,3.57,0,0,0,2.09.76,2.71,2.71,0,0,0,1-.17,2.35,2.35,0,0,1,.81-0.17,0.16,0.16,0,0,1,.18.18,1.48,1.48,0,0,1-.55.79,4.47,4.47,0,0,1-1,.59,5.48,5.48,0,0,1-1.13.35,5.14,5.14,0,0,1-.94.11,6.61,6.61,0,0,1-2.46-.46A11.84,11.84,0,0,1,657,321a22.76,22.76,0,0,1-2.09-1.59l-1.94-1.66q-0.92-.8-1.81-1.42a5.49,5.49,0,0,0-1.7-.85,12.1,12.1,0,0,1-4.32-1.26,10.79,10.79,0,0,1-3.29-2.61,11.48,11.48,0,0,1-2.11-3.77,14.59,14.59,0,0,1-.74-4.75,12.54,12.54,0,0,1,.92-4.8,12.9,12.9,0,0,1,2.51-4,12.1,12.1,0,0,1,3.7-2.7,10.23,10.23,0,0,1,4.43-1,14.34,14.34,0,0,1,5.62,1,11,11,0,0,1,6.32,6.71,14.45,14.45,0,0,1,.78,4.73,13.67,13.67,0,0,1-.7,4.45,11.46,11.46,0,0,1-2,3.6,11.12,11.12,0,0,1-3.07,2.59,11.81,11.81,0,0,1-4,1.4v0.15Zm-1.85-1.52a7.5,7.5,0,0,0,3.18-.67,7.35,7.35,0,0,0,2.48-1.85,8.51,8.51,0,0,0,1.61-2.81,10.61,10.61,0,0,0,.57-3.55A20.76,20.76,0,0,0,659,300a12.26,12.26,0,0,0-1.68-4,8.23,8.23,0,0,0-2.85-2.64,8.09,8.09,0,0,0-4-1,7.52,7.52,0,0,0-2.9.57,7.16,7.16,0,0,0-2.44,1.66,8.06,8.06,0,0,0-1.68,2.68,9.88,9.88,0,0,0-.63,3.66,20.74,20.74,0,0,0,.59,5.08,13.23,13.23,0,0,0,1.72,4.07,8.26,8.26,0,0,0,2.79,2.68A7.47,7.47,0,0,0,651.67,313.79Z" transform="translate(-112.85 -188.74)" style="fill:#fff"/><path d="M701.35,306.14a14.2,14.2,0,0,1-.48,3.83,7,7,0,0,1-4.58,4.92,13.44,13.44,0,0,1-4.62.68,13.88,13.88,0,0,1-5.14-.79,7.34,7.34,0,0,1-3-2.09,6.86,6.86,0,0,1-1.4-3,16.66,16.66,0,0,1-.35-3.42V293.72a1.18,1.18,0,0,0-.52-1.07,5.24,5.24,0,0,0-2-.52q-0.37,0-.37-0.63a3.13,3.13,0,0,1,.07-0.59l2.27,0.13c0.78,0,1.52.06,2.24,0.06s1.39,0,2.25-.06l2.4-.13a3.22,3.22,0,0,1,.07.59c0,0.39-.12.6-0.37,0.63a6.2,6.2,0,0,0-2,.52,1.13,1.13,0,0,0-.61,1.07v11.75a9.71,9.71,0,0,0,1.53,5.9q1.53,2.05,5.19,2.05a11.59,11.59,0,0,0,3.51-.46,5.25,5.25,0,0,0,3.7-3.92,14.52,14.52,0,0,0,.41-3.68V293.72a1.16,1.16,0,0,0-.55-1.07,5.64,5.64,0,0,0-2-.52,0.51,0.51,0,0,1-.41-0.63,3.14,3.14,0,0,1,.07-0.59l2.09,0.13q1,0.05,1.76.06t1.79-.06l1.79-.13a3.22,3.22,0,0,1,.07.59,0.81,0.81,0,0,1-.11.39,0.43,0.43,0,0,1-.3.24,4.64,4.64,0,0,0-1.9.5,1.21,1.21,0,0,0-.54,1.09v12.42Z" transform="translate(-112.85 -188.74)" style="fill:#fff"/><path d="M727,304.32h-2.74v8.13a1.1,1.1,0,0,0,.76,1.11,10.05,10.05,0,0,0,2.31.48,0.54,0.54,0,0,1,.44.63,3.32,3.32,0,0,1-.07.63q-1-.07-2.42-0.13t-2.79-.06q-1,0-2.22.06l-2.37.13a3.2,3.2,0,0,1-.07-0.59,0.51,0.51,0,0,1,.41-0.59,6.63,6.63,0,0,0,2-.54,1.1,1.1,0,0,0,.57-1.05V293.72a1.18,1.18,0,0,0-.54-1.05,5.42,5.42,0,0,0-2.09-.54q-0.37,0-.37-0.63a3.14,3.14,0,0,1,.07-0.59l2.29,0.13q1.18,0.05,2.25.06h5q4,0,6,1.76a6,6,0,0,1,2,4.75,5.7,5.7,0,0,1-.28,1.7,6.66,6.66,0,0,1-.85,1.74,7.06,7.06,0,0,1-1.48,1.57,7.48,7.48,0,0,1-2.12,1.16l6.17,8.57a3.88,3.88,0,0,0,1.55,1.33,10.2,10.2,0,0,0,1.59.55,0.45,0.45,0,0,1,.33.52,3.46,3.46,0,0,1-.07.67q-0.85-.07-2.07-0.13t-2.25-.06a2.46,2.46,0,0,1-1.57-.67,8.18,8.18,0,0,1-1.5-1.7Zm-0.78-1.52a6.38,6.38,0,0,0,4-1.09q1.4-1.09,1.41-3.83a7.17,7.17,0,0,0-.3-2.11,4.29,4.29,0,0,0-.94-1.66,4.45,4.45,0,0,0-1.7-1.11,7.17,7.17,0,0,0-2.57-.41h-1.85v10.2h2Z" transform="translate(-112.85 -188.74)" style="fill:#fff"/><path d="M760.49,292.61v9.46h5.77a1.08,1.08,0,0,0,1.05-.72,8,8,0,0,0,.5-1.76,0.6,0.6,0,0,1,.67-0.48l0.3,0,0.3,0.07q-0.07.81-.13,1.85t-0.06,1.81q0,0.63,0,1.53t0.15,2.05a2.3,2.3,0,0,1-.55.07,0.62,0.62,0,0,1-.7-0.48,8,8,0,0,0-.5-1.76,1.08,1.08,0,0,0-1.05-.72h-5.77v8.72a1.09,1.09,0,0,0,1,1,14.64,14.64,0,0,0,3.29.26h2a5.05,5.05,0,0,0,1.87-.31,4.75,4.75,0,0,0,1.4-.85,6.1,6.1,0,0,0,1.09-1.27,16.87,16.87,0,0,0,.92-1.63,0.54,0.54,0,0,1,.55-0.26,0.81,0.81,0,0,1,.39.11l0.39,0.22a8.92,8.92,0,0,0-.57,1.68l-0.46,1.87a13.76,13.76,0,0,1-.46,1.52,0.76,0.76,0,0,1-.61.63l-0.85,0-1.2-.06-1.31-.06q-0.67,0-1.15,0h-8.09q-1.07,0-2.29.06l-2.33.13a3.13,3.13,0,0,1-.07-0.59,0.51,0.51,0,0,1,.37-0.59,8.56,8.56,0,0,0,2-.55,1.05,1.05,0,0,0,.61-1V293.72a1,1,0,0,0-.54-1,8.92,8.92,0,0,0-2.09-.57,0.53,0.53,0,0,1-.37-0.63,2.21,2.21,0,0,1,0-.31,2.42,2.42,0,0,1,.06-0.28q1.59,0.11,2.66.15t1.92,0H766q1.66,0,2.88-.11t1.63-.11a0.68,0.68,0,0,1,.65.61,11.06,11.06,0,0,1,.28,1.46q0.11,0.85.26,1.81a4.34,4.34,0,0,0,.55,1.63,1.09,1.09,0,0,1-.67.22,0.61,0.61,0,0,1-.63-0.33,18.09,18.09,0,0,0-.85-1.64,4.3,4.3,0,0,0-.94-1.13,3.58,3.58,0,0,0-1.29-.67,6.74,6.74,0,0,0-1.87-.22h-5.47Z" transform="translate(-112.85 -188.74)" style="fill:#fff"/><path d="M802.6,296.89a3.06,3.06,0,0,1-.55.07,1.09,1.09,0,0,1-.7-0.19,1.27,1.27,0,0,1-.33-0.41,7.54,7.54,0,0,0-2.29-3.07,6.08,6.08,0,0,0-3.62-1,5.78,5.78,0,0,0-1.68.24,4.22,4.22,0,0,0-1.39.7,3.47,3.47,0,0,0-.94,1.13,3.11,3.11,0,0,0-.35,1.48,3.42,3.42,0,0,0,1.46,2.85A19.07,19.07,0,0,0,796.5,301a15.08,15.08,0,0,1,5.23,3.12,5.82,5.82,0,0,1,1.68,4.23,8.46,8.46,0,0,1-.46,2.83,6,6,0,0,1-1.44,2.29A6.71,6.71,0,0,1,799,315a11.13,11.13,0,0,1-3.73.55,16.68,16.68,0,0,1-4.16-.48,11.9,11.9,0,0,1-3.16-1.26q-0.11-1.55-.33-3t-0.52-2.88a1.59,1.59,0,0,1,.63-0.11,1,1,0,0,1,.68.2,1.69,1.69,0,0,1,.43.65,8.9,8.9,0,0,0,2.38,3.92,6.06,6.06,0,0,0,4.08,1.26,5.88,5.88,0,0,0,2.07-.33,4.08,4.08,0,0,0,1.48-.92,3.94,3.94,0,0,0,.89-1.33,4.23,4.23,0,0,0,.3-1.59,3.76,3.76,0,0,0-1.31-3,12.41,12.41,0,0,0-3.75-2,29.17,29.17,0,0,1-2.88-1.24,9.54,9.54,0,0,1-2.22-1.5,5.91,5.91,0,0,1-1.42-2,7.15,7.15,0,0,1,0-5.25,6,6,0,0,1,1.44-2.09,7,7,0,0,1,2.27-1.4,8.21,8.21,0,0,1,3-.52,16.21,16.21,0,0,1,3.33.33,23.14,23.14,0,0,1,3.58,1.11q0.07,1.11.2,2.38T802.6,296.89Z" transform="translate(-112.85 -188.74)" style="fill:#fff"/><path d="M838.42,312.53a1.07,1.07,0,0,0,.48,1,7.43,7.43,0,0,0,1.92.57,0.46,0.46,0,0,1,.37.52,3.45,3.45,0,0,1-.07.67q-0.92-.07-2.18-0.13t-2.24-.06q-1,0-2.18.06l-2.27.13a3.38,3.38,0,0,1-.07-0.67,0.46,0.46,0,0,1,.37-0.52,6.74,6.74,0,0,0,1.88-.55,1.09,1.09,0,0,0,.52-1v-8.94H823.34v8.94a1.07,1.07,0,0,0,.48,1,7.41,7.41,0,0,0,1.92.57,0.46,0.46,0,0,1,.41.52,3.45,3.45,0,0,1-.07.67q-1-.07-2.22-0.13t-2.25-.06q-1,0-2.18.06l-2.29.13a3.38,3.38,0,0,1-.07-0.67,0.46,0.46,0,0,1,.37-0.52,6.8,6.8,0,0,0,1.92-.55,1.09,1.09,0,0,0,.52-1V293.75a1.75,1.75,0,0,0-.09-0.61,1,1,0,0,0-.35-0.42,2.36,2.36,0,0,0-.72-0.31c-0.31-.09-0.71-0.18-1.2-0.28a0.48,0.48,0,0,1-.37-0.59,3.24,3.24,0,0,1,.07-0.63q0.92,0.07,2.14.13t2.22,0.06q1,0,2.18-.06l2.25-.13a3.33,3.33,0,0,1,.07.63,0.51,0.51,0,0,1-.37.59,5,5,0,0,0-1.9.55,1.23,1.23,0,0,0-.46,1.07V302h11.61v-8.28a1.29,1.29,0,0,0-.44-1,4.07,4.07,0,0,0-1.89-.61,0.48,0.48,0,0,1-.41-0.59,3.25,3.25,0,0,1,.07-0.63q0.92,0.07,2.16.13t2.22,0.06q1,0,2.15-.06l2.27-.13a3.25,3.25,0,0,1,.07.63,0.51,0.51,0,0,1-.37.59,5,5,0,0,0-1.9.55,1.23,1.23,0,0,0-.46,1.07v18.78Z" transform="translate(-112.85 -188.74)" style="fill:#fff"/><path d="M861.11,312.53a1,1,0,0,0,.52,1,8.14,8.14,0,0,0,1.92.57,0.51,0.51,0,0,1,.37.59,3.2,3.2,0,0,1-.07.59l-2.29-.13q-1.15-.06-2.18-0.06t-2.2.06l-2.27.13a3.13,3.13,0,0,1-.07-0.59,0.51,0.51,0,0,1,.37-0.59,6.8,6.8,0,0,0,1.92-.55,1.09,1.09,0,0,0,.52-1V293.72a1.14,1.14,0,0,0-.52-1.05,5.88,5.88,0,0,0-1.92-.54,0.35,0.35,0,0,1-.29-0.22,1.07,1.07,0,0,1-.07-0.41,3.14,3.14,0,0,1,.07-0.59l2.31,0.13q1.2,0.05,2.16.06t2.13-.06l2.35-.13a3.21,3.21,0,0,1,.07.59,0.53,0.53,0,0,1-.37.63,5.88,5.88,0,0,0-1.92.54,1.13,1.13,0,0,0-.52,1.05v18.81Z" transform="translate(-112.85 -188.74)" style="fill:#fff"/><path d="M412.59,351.12a8.14,8.14,0,0,1-1.68,1.52,16.59,16.59,0,0,1-3,1.68q-3.52,2.08-5,2.08-1.28,0-1.28-3.52,0-9.43,17.27-32,6.87-9.11,14.31-17.35t15.59-16.07q3.51-6.71,6.4-13.67t5.28-14.15q4.32-13.43,4.32-19.19,0-5.43-2.48-7.35T454,231.84q-17.27,1.92-44.93,23.66Q380.29,278,380.29,292.12q0,2.56,4,4,4.16,1.28,5.44,1,2.24-.32,2.24.32t-2.56,1.44a7.92,7.92,0,0,1-5.44,0,8.64,8.64,0,0,1-3.68-3.36,10.05,10.05,0,0,1-1.92-5.92q0-9.91,14.71-24.94a159.53,159.53,0,0,1,31.66-24.3q18.39-11,28.78-11.83,4.8-.16,9.91,3.68,5.12,4,5,8.31A71.51,71.51,0,0,1,465,257.18a232.11,232.11,0,0,1-8.63,23.1q20.3-17.75,28.3-17.75a7.36,7.36,0,0,1,5.6,2.64,7.12,7.12,0,0,1,2.08,5.68q-2.4,18.87-22.23,59.8-1.28,2.72,1.12,2.72a2.69,2.69,0,0,0,2.24-1.6q15.35-20.3,42.21-46.69,33.42-32.14,47.17-32.94,4.16-.32,6.72,4.64a19.88,19.88,0,0,1,2.24,9q0,2.72-.8,3.52-9,14.23-15,24.22t-9.19,15.75q-16.15,29.42-19,48.45a4.6,4.6,0,0,0-.16,1.12v1.12q0,6.24,5,5.12a28,28,0,0,0,5.36-2.32,56.23,56.23,0,0,0,7.12-4.72,64.46,64.46,0,0,0,11.19-10.39q1.44-1.92,2.24-1.92a0.42,0.42,0,0,1,.48.48,5.4,5.4,0,0,1-1.28,2.72,56.36,56.36,0,0,1-10.39,10.87,49.1,49.1,0,0,1-7.75,5.76,32.46,32.46,0,0,1-6.8,3q-2.72.8-5.12-3a14,14,0,0,1-2.56-7.83Q525,343.6,539.22,313.54q5.76-11.83,12.47-24t14.71-24.62a11.7,11.7,0,0,0,1.76-3.28,9,9,0,0,0,.48-2.64q0-3.52-4.8-3.52a17.5,17.5,0,0,0-4.48.64q-14.23,3.68-45.73,34.7a507.32,507.32,0,0,0-48.77,55,5.86,5.86,0,0,1-5,2.08q-2.56,0-2.56-1.6a1.73,1.73,0,0,1,.08-0.56l0.24-.72q13.91-26.38,21.67-44.93t9.83-29.58q0.64-5.27-3.68-5.28-6.24,0-17.91,9.11a88.62,88.62,0,0,0-15.35,14.23Q430.33,331.93,412.59,351.12Zm6.64-12.87Q424.1,331.45,430,322q12.15-18.86,15.67-27.66-9.27,8-20.31,22.86-13.11,17.27-17.43,29.42-1.76,4.32.32,4.32,1.12,0,2.4-1.76Q414.34,345,419.22,338.25Z" transform="translate(-112.85 -188.74)" style="fill:#fff"/><path d="M441.53,386.9a4.5,4.5,0,0,1,.83.19,2.73,2.73,0,0,1,.75.38,1.92,1.92,0,0,1,.55.62,1.77,1.77,0,0,1,.21.88,2.39,2.39,0,0,1-.21,1,2.12,2.12,0,0,1-.61.77,2.87,2.87,0,0,1-1,.48,4.18,4.18,0,0,1-1.23.17H438.3l-0.53,0-0.58,0a0.2,0.2,0,0,1,0-.08,0.15,0.15,0,0,1,0-.07v-0.06a0.18,0.18,0,0,1,.14-0.21,3.18,3.18,0,0,0,.7-0.2,0.36,0.36,0,0,0,.2-0.36v-6.61a0.45,0.45,0,0,0,0-.21,0.37,0.37,0,0,0-.15-0.14,1.21,1.21,0,0,0-.27-0.1l-0.43-.1a0.21,0.21,0,0,1-.14-0.25,0.34,0.34,0,0,1,0-.1,0.25,0.25,0,0,1,0-.08l0.84,0,0.76,0h1.6a4.15,4.15,0,0,1,1.24.16,2.33,2.33,0,0,1,.84.45,1.74,1.74,0,0,1,.47.66,2.07,2.07,0,0,1,.15.77,1.53,1.53,0,0,1-.12.59,2.07,2.07,0,0,1-.32.53,2.33,2.33,0,0,1-.49.44,2.23,2.23,0,0,1-.64.3v0Zm-1.91-.17a2.64,2.64,0,0,0,1.64-.4,1.54,1.54,0,0,0,.5-1.27,1.39,1.39,0,0,0-.5-1.18,2.75,2.75,0,0,0-1.64-.38h-0.2v3.23h0.2Zm-0.2,3.68a0.32,0.32,0,0,0,.09.23,0.61,0.61,0,0,0,.23.14,1.19,1.19,0,0,0,.29.07l0.3,0a4.64,4.64,0,0,0,.9-0.08,1.82,1.82,0,0,0,.69-0.27,1.29,1.29,0,0,0,.44-0.53,2,2,0,0,0,.16-0.84,1.66,1.66,0,0,0-.64-1.42,2.89,2.89,0,0,0-1.76-.48h-0.69v3.14Z" transform="translate(-112.85 -188.74)" style="fill:#fff"/><path d="M456.17,383.5v3.32h2a0.38,0.38,0,0,0,.37-0.25,2.78,2.78,0,0,0,.18-0.62,0.21,0.21,0,0,1,.23-0.17h0.1l0.1,0q0,0.29,0,.65c0,0.24,0,.45,0,0.64s0,0.33,0,.54,0,0.45.05,0.72l-0.2,0a0.22,0.22,0,0,1-.25-0.17,2.78,2.78,0,0,0-.18-0.62,0.38,0.38,0,0,0-.37-0.25h-2v3.07a0.38,0.38,0,0,0,.35.36,5.08,5.08,0,0,0,1.16.09h0.71a1.76,1.76,0,0,0,.66-0.11,1.59,1.59,0,0,0,.49-0.3,2.11,2.11,0,0,0,.38-0.45,5.7,5.7,0,0,0,.32-0.57,0.19,0.19,0,0,1,.2-0.09,0.27,0.27,0,0,1,.14,0l0.14,0.08a3.13,3.13,0,0,0-.2.59l-0.16.66a4.81,4.81,0,0,1-.16.53,0.27,0.27,0,0,1-.21.22h-0.3l-0.42,0-0.46,0h-3.25l-0.81,0-0.82,0a1.16,1.16,0,0,1,0-.21,0.18,0.18,0,0,1,.13-0.21,3,3,0,0,0,.71-0.2,0.37,0.37,0,0,0,.21-0.36v-6.61a0.37,0.37,0,0,0-.19-0.36,3.13,3.13,0,0,0-.73-0.2,0.19,0.19,0,0,1-.13-0.22,0.81,0.81,0,0,1,0-.11l0-.1,0.94,0.05h3.23c0.39,0,.73,0,1,0l0.57,0a0.24,0.24,0,0,1,.23.21,3.91,3.91,0,0,1,.1.51c0,0.2.06,0.41,0.09,0.64a1.54,1.54,0,0,0,.2.57,0.39,0.39,0,0,1-.23.08,0.21,0.21,0,0,1-.22-0.12,6.45,6.45,0,0,0-.3-0.58,1.54,1.54,0,0,0-.33-0.4,1.31,1.31,0,0,0-.45-0.23,2.42,2.42,0,0,0-.66-0.08h-1.92Z" transform="translate(-112.85 -188.74)" style="fill:#fff"/><path d="M485,387.85l-2.07-3.94a0.82,0.82,0,0,0-.36-0.38,1.92,1.92,0,0,0-.55-0.15q-0.16,0-.16-0.26v-0.06a0.23,0.23,0,0,1,0-.07V382.9l0.73,0,1,0h0.95l0.49,0,0.37,0a0.91,0.91,0,0,1,0,.16v0.07a0.21,0.21,0,0,1-.16.25,1.36,1.36,0,0,0-.47.11,0.21,0.21,0,0,0-.13.19,0.62,0.62,0,0,0,.09.27l1.52,3,1.49-2.8a0.88,0.88,0,0,0,.14-0.42,0.24,0.24,0,0,0-.14-0.23,2,2,0,0,0-.49-0.14,0.21,0.21,0,0,1-.17-0.25,1.47,1.47,0,0,1,0-.23l0.68,0,0.72,0h0.63l0.67-.05a0.55,0.55,0,0,1,0,.15v0.08q0,0.24-.16.25a2,2,0,0,0-.65.17,0.89,0.89,0,0,0-.31.32l-2.14,3.95v2.59a0.59,0.59,0,0,0,0,.23,0.33,0.33,0,0,0,.14.15,0.94,0.94,0,0,0,.28.11,3.7,3.7,0,0,0,.46.08,0.2,0.2,0,0,1,.11.06,0.27,0.27,0,0,1,0,.19,0.3,0.3,0,0,1,0,.06,0.36,0.36,0,0,0,0,.07v0.09H487.3l-0.36,0-0.64,0H485.2l-0.59,0-0.33,0h-0.33v-0.09a0.25,0.25,0,0,1,0-.07v-0.06a0.28,0.28,0,0,1,0-.19,0.2,0.2,0,0,1,.11-0.06l0.46-.1a1.1,1.1,0,0,0,.29-0.1,0.31,0.31,0,0,0,.14-0.15,0.61,0.61,0,0,0,0-.23v-2.56Z" transform="translate(-112.85 -188.74)" style="fill:#fff"/><path d="M499.9,387.18a4.23,4.23,0,0,1,.34-1.7,4.43,4.43,0,0,1,2.34-2.33,4.27,4.27,0,0,1,1.71-.34,4.61,4.61,0,0,1,1.74.32,4.17,4.17,0,0,1,2.33,2.3,4.5,4.5,0,0,1,.34,1.75,4.26,4.26,0,0,1-.35,1.71,4.37,4.37,0,0,1-.94,1.39,4.49,4.49,0,0,1-1.4.93,4.32,4.32,0,0,1-1.72.34,4.61,4.61,0,0,1-1.74-.32,4.07,4.07,0,0,1-1.39-.91,4.29,4.29,0,0,1-.92-1.38A4.47,4.47,0,0,1,499.9,387.18Zm4.59,3.7a2,2,0,0,0,1-.24,2.37,2.37,0,0,0,.76-0.66,3.1,3.1,0,0,0,.49-1,4,4,0,0,0,.18-1.2,7.92,7.92,0,0,0-.18-1.71,4.41,4.41,0,0,0-.53-1.37,2.74,2.74,0,0,0-.9-0.91,2.35,2.35,0,0,0-1.25-.33,2.06,2.06,0,0,0-.88.2,2.25,2.25,0,0,0-.75.59,3,3,0,0,0-.52.93,3.67,3.67,0,0,0-.19,1.24,7.94,7.94,0,0,0,.19,1.78,4.8,4.8,0,0,0,.55,1.41,2.77,2.77,0,0,0,.88.92A2.15,2.15,0,0,0,504.49,390.89Z" transform="translate(-112.85 -188.74)" style="fill:#fff"/><path d="M526.65,388.2a5.54,5.54,0,0,1-.16,1.36,2.59,2.59,0,0,1-.54,1.07,2.48,2.48,0,0,1-1,.69,4.53,4.53,0,0,1-1.62.25,5.5,5.5,0,0,1-1.86-.26,2.57,2.57,0,0,1-1.09-.71,2.34,2.34,0,0,1-.51-1.05,6.12,6.12,0,0,1-.13-1.29v-4.31a0.42,0.42,0,0,0-.17-0.38,1.86,1.86,0,0,0-.69-0.17,0.21,0.21,0,0,1-.14-0.25V383a0.36,0.36,0,0,1,0-.13l0.8,0,1,0,0.95,0,0.88,0s0,0.09,0,.13,0,0.08,0,.1a0.21,0.21,0,0,1-.14.25,2,2,0,0,0-.72.18,0.41,0.41,0,0,0-.19.38v4a3.51,3.51,0,0,0,.5,2.05,2,2,0,0,0,1.72.7,2.15,2.15,0,0,0,1.77-.66,3.43,3.43,0,0,0,.53-2.14v-4a0.42,0.42,0,0,0-.18-0.38,1.82,1.82,0,0,0-.69-0.18,0.22,0.22,0,0,1-.16-0.25s0-.06,0-0.1a1.17,1.17,0,0,1,0-.13l0.69,0.05H527l0.64-.05s0,0.09,0,.13,0,0.08,0,.1a0.22,0.22,0,0,1-.15.25,1.56,1.56,0,0,0-.66.17,0.43,0.43,0,0,0-.18.38v4.26Z" transform="translate(-112.85 -188.74)" style="fill:#fff"/><path d="M578.05,418.87c-0.24-.58.74,3.34,0.79,3.64s1.7,7.89,1.7,11.25a22.77,22.77,0,0,1-2.22,10.43,22.18,22.18,0,0,1-6.51,7.62q-7,4.88-17.32,5.18-6.51.3-16.58-2.66a210.11,210.11,0,0,1-24-9q-5.48-2.52-14.8-7-4.47-2.16-9.86-4.86C552.93,429.09,603.4,376,603.4,311.24A122.5,122.5,0,1,0,412.75,413a2.16,2.16,0,0,0-.32.82c-0.2,1.09-.79,4.33,2.67,8.18,2.61,3,13.46,9.22,10.73,6.52-7.64-7.48-9.22-12-9.24-13.06a121.7,121.7,0,0,0,61.2,18.22c7.82,3.9,14.32,7.13,19.44,9.65q11,5.4,14.36,6.88c16.38,7,47.69,18.72,65.26,4,5.62-4.71,10-12.69,7.11-24.05C582,422.55,578.65,419.17,578.05,418.87ZM476.51,427l1.06,0.17c-0.25,0-.28-0.57-0.53-0.58S476.61,427,476.51,427ZM364.94,311.24a116,116,0,0,1,231.95,0c0,62.9-54.22,114.37-116.72,116-18-7.55-45.36-18.36-52.25-19.44-2.85-.45-7.88-1.83-10.95.09A115,115,0,0,1,364.94,311.24ZM466.14,426.55c-13.93-2.4-32-8.34-43.77-15.25,0.37,0,.76.06,1.22,0.12a21.15,21.15,0,0,1,2.29.44,156.75,156.75,0,0,1,17.54,5.92C448.67,419.84,459.57,423.48,466.14,426.55Z" transform="translate(-112.85 -188.74)" style="fill:url(#a)"/></svg>