<?xml version="1.0" encoding="utf-8"?>
<!-- Generator: Adobe Illustrator 19.2.0, SVG Export Plug-In . SVG Version: 6.00 Build 0)  -->
<svg version="1.1" id="Layer_1" xmlns="http://www.w3.org/2000/svg" xmlns:xlink="http://www.w3.org/1999/xlink" x="0px" y="0px"
	 viewBox="0 0 379.1 272.5" style="enable-background:new 0 0 379.1 272.5;" xml:space="preserve">
<style type="text/css">
	.st0{fill:#FFFFFF;}
	.st1{fill:url(#SVGID_1_);}
</style>
<title>mq_logo</title>
<path class="st0" d="M113.7,162.4c-0.5,0.6-1.1,1.1-1.7,1.5c-0.9,0.7-1.9,1.2-3,1.7c-2.3,1.4-4,2.1-5,2.1c-0.9,0-1.3-1.2-1.3-3.5
	c0-6.3,5.8-17,17.3-32c4.6-6.1,9.3-11.9,14.3-17.4c5-5.5,10.2-10.9,15.6-16.1c2.3-4.5,4.5-9,6.4-13.7c1.9-4.6,3.7-9.4,5.3-14.1
	c2.9-9,4.3-15.3,4.3-19.2c0-3.6-0.8-6.1-2.5-7.4c-1.7-1.3-4.4-1.7-8.3-1.3c-11.5,1.3-26.5,9.2-44.9,23.7C91,81.8,81.4,94,81.4,103.4
	c0,1.7,1.3,3,4,4c2.8,0.9,4.6,1.2,5.4,1c1.5-0.2,2.2-0.1,2.2,0.3s-0.9,0.9-2.6,1.4c-1.8,0.6-3.7,0.6-5.4,0c-1.5-0.7-2.8-1.9-3.7-3.4
	c-1.3-1.7-1.9-3.8-1.9-5.9c0-6.6,4.9-14.9,14.7-24.9c9.5-9.4,20.1-17.6,31.7-24.3c12.3-7.3,21.9-11.3,28.8-11.8
	c3.2-0.1,6.5,1.1,9.9,3.7c3.4,2.7,5.1,5.4,5,8.3c-0.5,5.7-1.6,11.3-3.4,16.7c-2.5,7.8-5.3,15.6-8.6,23.1
	c13.5-11.8,23-17.8,28.3-17.8c2.2,0,4.2,1,5.6,2.6c1.5,1.5,2.3,3.6,2.1,5.7c-1.6,12.6-9,32.5-22.2,59.8c-0.9,1.8-0.5,2.7,1.1,2.7
	c1-0.1,1.8-0.7,2.2-1.6c10.2-13.5,24.3-29.1,42.2-46.7c22.3-21.4,38-32.4,47.2-32.9c2.8-0.2,5,1.3,6.7,4.6c1.4,2.8,2.2,5.9,2.2,9
	c0,1.8-0.3,3-0.8,3.5c-6,9.5-11,17.6-15,24.2c-4,6.7-7.1,11.9-9.2,15.8c-10.8,19.6-17.1,35.8-19,48.5c-0.1,0.4-0.2,0.7-0.2,1.1v1.1
	c0,4.2,1.7,5.9,5,5.1c1.9-0.6,3.7-1.4,5.4-2.3c2.5-1.4,4.9-3,7.1-4.7c4.1-3,7.9-6.5,11.2-10.4c1-1.3,1.7-1.9,2.2-1.9
	c0.2,0,0.4,0.1,0.5,0.3c0,0,0,0.1,0,0.1c-0.2,1-0.6,2-1.3,2.7c-3,4.1-6.5,7.7-10.4,10.9c-2.4,2.2-5,4.1-7.8,5.8
	c-2.1,1.3-4.4,2.3-6.8,3c-1.8,0.5-3.5-0.5-5.1-3c-1.6-2.3-2.5-5-2.6-7.8c-0.1-9.4,4.6-24.1,14.1-44.2c3.8-7.9,8-15.9,12.5-24
	s9.4-16.3,14.7-24.6c0.8-1,1.4-2.1,1.8-3.3c0.3-0.9,0.5-1.7,0.5-2.6c0-2.3-1.6-3.5-4.8-3.5c-1.5,0-3,0.2-4.5,0.6
	c-9.5,2.5-24.7,14-45.7,34.7c-17.6,17.1-33.9,35.5-48.8,55c-1.2,1.5-3.1,2.2-5,2.1c-1.7,0-2.6-0.5-2.6-1.6c0-0.2,0-0.4,0.1-0.6
	l0.2-0.7c9.3-17.6,16.5-32.6,21.7-44.9c5.2-12.4,8.4-22.2,9.8-29.6c0.4-3.5-0.8-5.3-3.7-5.3c-4.2,0-10.1,3-17.9,9.1
	c-5.7,4.1-10.8,8.9-15.4,14.2C138.8,128.7,125.6,149.6,113.7,162.4z M120.4,149.5c3.2-4.5,6.8-9.9,10.8-16.2
	c8.1-12.6,13.3-21.8,15.7-27.7c-6.2,5.3-13,13-20.3,22.9c-8.7,11.5-14.5,21.3-17.4,29.4c-1.2,2.9-1.1,4.3,0.3,4.3
	c0.7,0,1.5-0.6,2.4-1.8C114.3,157.7,117.1,154,120.4,149.5L120.4,149.5z"/>
<path class="st0" d="M142.7,198.2c0.3,0,0.6,0.1,0.8,0.2c0.3,0.1,0.5,0.2,0.8,0.4c0.2,0.2,0.4,0.4,0.5,0.6c0.1,0.3,0.2,0.6,0.2,0.9
	c0,0.3-0.1,0.7-0.2,1c-0.1,0.3-0.3,0.6-0.6,0.8c-0.3,0.2-0.6,0.4-1,0.5c-0.4,0.1-0.8,0.2-1.2,0.2h-2.5h-0.5h-0.6c0,0,0-0.1,0-0.1
	c0,0,0,0,0-0.1v-0.1c0-0.1,0-0.2,0.1-0.2c0.2,0,0.5-0.1,0.7-0.2c0.1-0.1,0.2-0.2,0.2-0.4v-6.6c0-0.1,0-0.1,0-0.2
	c0-0.1-0.1-0.1-0.1-0.1c-0.1,0-0.2-0.1-0.3-0.1l-0.4-0.1c-0.1,0-0.2-0.1-0.1-0.2c0,0,0-0.1,0-0.1c0,0,0-0.1,0-0.1h0.8h0.8h1.6
	c0.4,0,0.8,0,1.2,0.2c0.3,0.1,0.6,0.2,0.8,0.5c0.2,0.2,0.4,0.4,0.5,0.7c0.1,0.2,0.1,0.5,0.1,0.8c0,0.2,0,0.4-0.1,0.6
	c-0.1,0.2-0.2,0.4-0.3,0.5c-0.1,0.2-0.3,0.3-0.5,0.4c-0.2,0.1-0.4,0.2-0.6,0.3l0,0L142.7,198.2z M140.8,198c0.6,0,1.2-0.1,1.6-0.4
	c0.4-0.3,0.5-0.8,0.5-1.3c0-0.5-0.2-0.9-0.5-1.2c-0.5-0.3-1.1-0.4-1.6-0.4h-0.2v3.2L140.8,198L140.8,198z M140.6,201.7
	c0,0.1,0,0.2,0.1,0.2c0.1,0.1,0.1,0.1,0.2,0.1c0.1,0,0.2,0.1,0.3,0.1h0.3c0.3,0,0.6,0,0.9-0.1c0.2,0,0.5-0.1,0.7-0.3
	c0.2-0.1,0.3-0.3,0.4-0.5c0.1-0.3,0.2-0.6,0.2-0.8c0-0.6-0.2-1.1-0.6-1.4c-0.5-0.3-1.1-0.5-1.8-0.5h-0.7L140.6,201.7L140.6,201.7z"
	/>
<path class="st0" d="M157.3,194.8v3.3h2c0.2,0,0.3-0.1,0.4-0.2c0.1-0.2,0.1-0.4,0.2-0.6c0-0.1,0.1-0.2,0.2-0.2h0.1h0.1
	c0,0.2,0,0.4,0,0.6c0,0.2,0,0.5,0,0.6s0,0.3,0,0.5s0,0.5,0,0.7h-0.2c-0.1,0-0.2-0.1-0.2-0.2c0-0.2-0.1-0.4-0.2-0.6
	c-0.1-0.2-0.2-0.3-0.4-0.2h-2v3.1c0,0.2,0.2,0.3,0.4,0.4c0.4,0.1,0.8,0.1,1.2,0.1h0.7c0.2,0,0.4,0,0.7-0.1c0.2-0.1,0.3-0.2,0.5-0.3
	c0.1-0.1,0.3-0.3,0.4-0.5c0.1-0.2,0.2-0.4,0.3-0.6c0-0.1,0.1-0.1,0.2-0.1c0,0,0.1,0,0.1,0l0.1,0.1c-0.1,0.2-0.2,0.4-0.2,0.6
	l-0.2,0.7c0,0.2-0.1,0.4-0.2,0.5c0,0.1-0.1,0.2-0.2,0.2h-0.3h-0.4H160h-3.2h-0.8h-0.8c0-0.1,0-0.1,0-0.2c0-0.1,0-0.2,0.1-0.2
	c0.2,0,0.5-0.1,0.7-0.2c0.1-0.1,0.2-0.2,0.2-0.4V195c0-0.1-0.1-0.3-0.2-0.4c-0.2-0.1-0.5-0.2-0.7-0.2c-0.1,0-0.1-0.1-0.1-0.2
	c0,0,0-0.1,0-0.1v-0.1l0.9,0h3.2c0.4,0,0.7,0,1,0h0.6c0.1,0,0.2,0.1,0.2,0.2c0,0.2,0.1,0.3,0.1,0.5c0,0.2,0.1,0.4,0.1,0.6
	c0,0.2,0.1,0.4,0.2,0.6c-0.1,0.1-0.1,0.1-0.2,0.1c-0.1,0-0.2,0-0.2-0.1c-0.1-0.2-0.2-0.4-0.3-0.6c-0.1-0.2-0.2-0.3-0.3-0.4
	c-0.1-0.1-0.3-0.2-0.5-0.2c-0.2-0.1-0.4-0.1-0.7-0.1L157.3,194.8L157.3,194.8z"/>
<path class="st0" d="M186.1,199.1l-2.1-3.9c-0.1-0.2-0.2-0.3-0.4-0.4c-0.2-0.1-0.4-0.1-0.5-0.1c-0.1,0-0.2-0.1-0.2-0.3v-0.1
	c0,0,0,0,0-0.1v-0.1h0.7h1h1h0.5h0.4c0,0.1,0,0.1,0,0.2v0.1c0,0.1,0,0.2-0.2,0.2c-0.2,0-0.3,0-0.5,0.1c-0.1,0-0.1,0.1-0.1,0.2
	c0,0.1,0,0.2,0.1,0.3l1.5,3l1.5-2.8c0.1-0.1,0.1-0.3,0.1-0.4c0-0.1-0.1-0.2-0.1-0.2c-0.2-0.1-0.3-0.1-0.5-0.1
	c-0.1,0-0.2-0.1-0.2-0.2c0,0,0,0,0,0c0-0.1,0-0.2,0-0.2h0.7h0.7h0.6l0.7,0c0,0,0,0.1,0,0.1v0.1c0,0.2-0.1,0.2-0.2,0.2
	c-0.2,0-0.4,0.1-0.6,0.2c-0.1,0.1-0.2,0.2-0.3,0.3l-2.1,4v2.6c0,0.1,0,0.2,0,0.2c0,0.1,0.1,0.1,0.1,0.1c0.1,0.1,0.2,0.1,0.3,0.1
	c0.2,0,0.3,0.1,0.5,0.1c0,0,0.1,0,0.1,0.1c0,0.1,0,0.1,0,0.2c0,0,0,0,0,0.1c0,0,0,0,0,0.1v0.1h-0.2h-0.4h-0.6h-1.1h-0.6h-0.3h-0.3
	v-0.1c0,0,0,0,0-0.1v-0.1c0-0.1,0-0.1,0-0.2c0,0,0.1-0.1,0.1-0.1l0.5-0.1c0.1,0,0.2-0.1,0.3-0.1c0.1,0,0.1-0.1,0.1-0.1
	c0-0.1,0-0.2,0-0.2L186.1,199.1L186.1,199.1z"/>
<path class="st0" d="M201,198.4c0-0.6,0.1-1.2,0.3-1.7c0.5-1,1.3-1.9,2.3-2.3c0.5-0.2,1.1-0.3,1.7-0.3c0.6,0,1.2,0.1,1.7,0.3
	c1.1,0.4,1.9,1.2,2.3,2.3c0.2,0.6,0.3,1.1,0.3,1.8c0,0.6-0.1,1.2-0.4,1.7c-0.2,0.5-0.5,1-0.9,1.4c-0.4,0.4-0.9,0.7-1.4,0.9
	c-0.5,0.2-1.1,0.3-1.7,0.3c-0.6,0-1.2-0.1-1.7-0.3c-0.5-0.2-1-0.5-1.4-0.9c-0.4-0.4-0.7-0.9-0.9-1.4C201.2,199.6,201,199,201,198.4z
	 M205.6,202.1c0.3,0,0.7-0.1,1-0.2c0.3-0.2,0.6-0.4,0.8-0.7c0.2-0.3,0.4-0.6,0.5-1c0.1-0.4,0.2-0.8,0.2-1.2c0-0.6-0.1-1.1-0.2-1.7
	c-0.1-0.5-0.3-0.9-0.5-1.4c-0.2-0.4-0.5-0.7-0.9-0.9c-0.4-0.2-0.8-0.3-1.2-0.3c-0.3,0-0.6,0.1-0.9,0.2c-0.3,0.1-0.5,0.3-0.8,0.6
	c-0.2,0.3-0.4,0.6-0.5,0.9c-0.1,0.4-0.2,0.8-0.2,1.2c0,0.6,0.1,1.2,0.2,1.8c0.1,0.5,0.3,1,0.5,1.4c0.2,0.4,0.5,0.7,0.9,0.9
	C204.8,202,205.2,202.1,205.6,202.1L205.6,202.1z"/>
<path class="st0" d="M227.8,199.5c0,0.5-0.1,0.9-0.2,1.4c-0.1,0.4-0.3,0.8-0.5,1.1c-0.3,0.3-0.6,0.5-1,0.7c-0.5,0.2-1.1,0.3-1.6,0.2
	c-0.6,0-1.3-0.1-1.9-0.3c-0.4-0.1-0.8-0.4-1.1-0.7c-0.3-0.3-0.4-0.7-0.5-1c-0.1-0.4-0.1-0.9-0.1-1.3v-4.3c0-0.1-0.1-0.3-0.2-0.4
	c-0.2-0.1-0.5-0.2-0.7-0.2c-0.1,0-0.2-0.1-0.1-0.2v-0.1c0,0,0-0.1,0-0.1h0.8h1h1h0.9c0,0,0,0.1,0,0.1s0,0.1,0,0.1
	c0,0.1,0,0.2-0.1,0.2c-0.2,0-0.5,0.1-0.7,0.2c-0.1,0.1-0.2,0.2-0.2,0.4v4c0,0.7,0.1,1.4,0.5,2c0.4,0.5,1.1,0.8,1.7,0.7
	c0.7,0.1,1.3-0.2,1.8-0.7c0.4-0.6,0.6-1.4,0.5-2.1v-4c0-0.1-0.1-0.3-0.2-0.4c-0.2-0.1-0.5-0.2-0.7-0.2c-0.1,0-0.2-0.1-0.2-0.2
	c0,0,0-0.1,0-0.1c0,0,0-0.1,0-0.1l0.7,0h1.5l0.6,0c0,0,0,0.1,0,0.1s0,0.1,0,0.1c0,0.1,0,0.2-0.2,0.2c-0.2,0-0.5,0.1-0.7,0.2
	c-0.1,0.1-0.2,0.2-0.2,0.4V199.5L227.8,199.5z"/>
<linearGradient id="SVGID_1_" gradientUnits="userSpaceOnUse" x1="199.5208" y1="39.7051" x2="420.3688" y2="-145.5988" gradientTransform="matrix(1 0 0 -1 -112.85 85.26)">
	<stop  offset="1.000000e-02" style="stop-color:#FAC826"/>
	<stop  offset="4.000000e-02" style="stop-color:#FACA2C"/>
	<stop  offset="8.000000e-02" style="stop-color:#FBCF3C"/>
	<stop  offset="0.12" style="stop-color:#FBD757"/>
	<stop  offset="0.17" style="stop-color:#FDE27D"/>
	<stop  offset="0.22" style="stop-color:#FEF1AC"/>
	<stop  offset="0.25" style="stop-color:#FFFACB"/>
	<stop  offset="0.25" style="stop-color:#FFF9C8"/>
	<stop  offset="0.27" style="stop-color:#FEEEA2"/>
	<stop  offset="0.3" style="stop-color:#FDE481"/>
	<stop  offset="0.32" style="stop-color:#FDDC65"/>
	<stop  offset="0.35" style="stop-color:#FCD54E"/>
	<stop  offset="0.38" style="stop-color:#FCCF3D"/>
	<stop  offset="0.42" style="stop-color:#FBCC30"/>
	<stop  offset="0.47" style="stop-color:#FBCA29"/>
	<stop  offset="0.6" style="stop-color:#FBC927"/>
	<stop  offset="0.72" style="stop-color:#FBC929"/>
	<stop  offset="0.76" style="stop-color:#FACA30"/>
	<stop  offset="0.8" style="stop-color:#F8CC3B"/>
	<stop  offset="0.82" style="stop-color:#F6CE4C"/>
	<stop  offset="0.84" style="stop-color:#F2D162"/>
	<stop  offset="0.86" style="stop-color:#EFD57D"/>
	<stop  offset="0.87" style="stop-color:#EDD688"/>
	<stop  offset="0.89" style="stop-color:#EED582"/>
	<stop  offset="0.92" style="stop-color:#F0D173"/>
	<stop  offset="0.95" style="stop-color:#F3CC59"/>
	<stop  offset="0.98" style="stop-color:#F8C435"/>
	<stop  offset="1" style="stop-color:#FCBD14"/>
</linearGradient>
<path class="st1" d="M279.2,230.1c-0.2-0.6,0.7,3.3,0.8,3.6s1.7,7.9,1.7,11.2c0.1,3.6-0.7,7.2-2.2,10.4c-1.6,3-3.8,5.6-6.5,7.6
	c-4.7,3.3-10.4,5-17.3,5.2c-4.3,0.2-9.9-0.7-16.6-2.7c-8.2-2.5-16.2-5.5-24-9c-3.7-1.7-8.6-4-14.8-7c-3-1.4-6.3-3.1-9.9-4.9
	c63.7-4.4,114.2-57.5,114.2-122.2C304.6,54.8,249.7,0,182.1,0c-67.7,0-122.5,54.8-122.5,122.5c0,40.9,20.4,79.1,54.3,101.8
	c-0.2,0.2-0.3,0.5-0.3,0.8c-0.2,1.1-0.8,4.3,2.7,8.2c2.6,3,13.5,9.2,10.7,6.5c-7.6-7.5-9.2-12-9.2-13.1
	c18.4,11.4,39.5,17.7,61.2,18.2c7.8,3.9,14.3,7.1,19.4,9.6c7.3,3.6,12.1,5.9,14.4,6.9c16.4,7,47.7,18.7,65.3,4
	c5.6-4.7,10-12.7,7.1-24C283.1,233.8,279.8,230.4,279.2,230.1z M177.7,238.3l1.1,0.2c-0.2,0-0.3-0.6-0.5-0.6
	S177.8,238.3,177.7,238.3z M66.1,122.5C67.4,58.4,120.4,7.6,184.5,8.9c62.2,1.3,112.3,51.4,113.6,113.6c0,62.9-54.2,114.4-116.7,116
	c-18-7.5-45.4-18.4-52.2-19.4c-2.8-0.5-7.9-1.8-11,0.1C85.5,197.8,65.9,161.4,66.1,122.5z M167.3,237.8c-13.9-2.4-32-8.3-43.8-15.2
	c0.4,0,0.8,0.1,1.2,0.1c0.8,0.1,1.5,0.3,2.3,0.4c6,1.6,11.8,3.6,17.5,5.9C149.8,231.1,160.7,234.7,167.3,237.8z"/>
</svg>
